<?xml version="1.0" encoding="utf-8"?>
<!-- Generator: Adobe Illustrator 17.1.0, SVG Export Plug-In . SVG Version: 6.00 Build 0)  -->
<!DOCTYPE svg PUBLIC "-//W3C//DTD SVG 1.1//EN" "http://www.w3.org/Graphics/SVG/1.1/DTD/svg11.dtd">
<svg version="1.1" id="Capa_1" xmlns="http://www.w3.org/2000/svg" xmlns:xlink="http://www.w3.org/1999/xlink" x="0px" y="0px"
	 viewBox="0 0 600.9 847.6" enable-background="new 0 0 600.9 847.6" xml:space="preserve">
<g>
	<path fill="#FFD044" d="M596.4,326.9L255.9,164.2c-4-1.9-8.7-0.3-10.6,3.7L171.3,323h40.4L266,209.1l295.2,141l-92.3,193.2
		l-52-24.8v102.1l32,15.3c4,1.9,8.7,0.2,10.6-3.8l140.7-294.6C602.1,333.5,600.4,328.8,596.4,326.9z"/>
	<path fill="#FFD044" d="M385.3,341.7H8c-4.4,0-8,3.6-8,7.9v326.5c0,4.4,3.6,8,8,8h377.3c4.4,0,8-3.6,8-8V349.6
		C393.3,345.3,389.7,341.7,385.3,341.7z M363.5,592h-23.9c-13.9-35.7-31.1-85.7-57.1-79c-30.5,7.8-45.7,79-45.7,79
		s-15.6-80.4-58.6-123.4c-43-43-84.7,123.4-84.7,123.4h-57V377.8h327.1V592z"/>
	<circle fill="#FFD044" cx="89.2" cy="423.8" r="26.7"/>
	<path fill="#FFD044" d="M268.2,442.6c6,0,11.6-0.6,16.6-1.6c5.8,2.5,12.9,4,20.6,4c19.7,0,35.6-9.6,35.6-21.5
		c0-11.8-15.9-21.4-35.6-21.4c-7.4,0-14.2,1.3-19.9,3.7c-2.4-2.3-5.5-3.7-9-3.7h-5.2c-6.6,0-11.8,5-12.6,11.4
		c-15.9,1.7-27.8,7.4-27.8,14.3C231,436,247.7,442.6,268.2,442.6z"/>
</g>
</svg>
