<?xml version="1.0" encoding="utf-8"?>
<!-- Generator: Adobe Illustrator 17.1.0, SVG Export Plug-In . SVG Version: 6.00 Build 0)  -->
<!DOCTYPE svg PUBLIC "-//W3C//DTD SVG 1.1//EN" "http://www.w3.org/Graphics/SVG/1.1/DTD/svg11.dtd">
<svg version="1.1" id="Capa_1" xmlns="http://www.w3.org/2000/svg" xmlns:xlink="http://www.w3.org/1999/xlink" x="0px" y="0px"
	 viewBox="0 0 300 307.6" enable-background="new 0 0 300 307.6" xml:space="preserve">
<g>
	<g>
		<path fill="#EF295E" d="M148.6,210.7c24.5,0,44.4-19.9,44.4-44.4V66.6c0-24.5-19.9-44.4-44.4-44.4s-44.4,19.9-44.4,44.4v99.7
			C104.2,190.8,124.1,210.7,148.6,210.7z"/>
		<path fill="#EF295E" d="M220,139.8h-8.8c-2.8,0-5.1,2.3-5.1,5.1V163c0,31.6-25.7,57.4-57.4,57.4S91.2,194.6,91.2,163v-18.1
			c0-2.8-2.3-5.1-5.1-5.1h-8.8c-2.8,0-5.1,2.3-5.1,5.1V163c0,37.8,29.4,71.2,66.9,75.9v12.8H99.5c-2.8,0-5.1,2.3-5.1,5.1v8.8
			c0,2.8,2.3,5.1,5.1,5.1h98.1c2.8,0,5.1-2.3,5.1-5.1v-8.8c0-2.8-2.3-5.1-5.1-5.1h-39.5v-12.8c37.5-4.7,66.9-38.1,66.9-75.9v-18.1
			C225.1,142.1,222.8,139.8,220,139.8z"/>
	</g>
</g>
</svg>
